P2
#filtro criado por Talita Halboth
24 7
15
0 1 1 1 1 0 1 2 3 3 2 1 1 3 5 5 3 1 2 5 7 7 5 3 
1 1 1 1 0 0 1 2 3 2 1 0 2 3 4 3 2 1 3 5 6 6 5 5 
1 1 2 1 1 0 2 3 5 3 2 0 3 6 8 6 3 1 5 8 11 11 8 7 
1 1 1 0 0 0 2 3 3 1 0 0 3 4 6 2 1 0 5 6 8 6 5 5 
1 1 1 0 0 0 2 3 5 3 2 0 3 6 8 6 3 1 5 6 8 5 3 2 
1 0 0 0 0 0 1 2 3 2 1 0 2 3 4 3 2 1 3 3 3 0 0 0 
0 0 0 0 0 0 1 2 3 3 2 1 1 3 5 5 3 1 2 2 2 0 0 0 
